<svg width="19" height="19" viewBox="0 0 19 19" fill="none" xmlns="http://www.w3.org/2000/svg">
<path d="M13.4461 16.9496L13.1806 18.0348C12.3842 18.3492 11.748 18.5884 11.2743 18.7529C10.8 18.9179 10.249 19 9.62111 19C8.65695 19 7.90701 18.7638 7.37215 18.2947C6.83728 17.8237 6.56976 17.2268 6.56976 16.5028C6.56976 16.2225 6.58917 15.9342 6.62953 15.6404C6.67023 15.3463 6.73494 15.0151 6.82348 14.6449L7.81881 11.1221C7.90736 10.7847 7.98262 10.4651 8.0429 10.1628C8.10404 9.86245 8.1335 9.58608 8.1335 9.33729C8.1335 8.8874 8.04035 8.57271 7.85491 8.39578C7.66947 8.21936 7.31561 8.12979 6.79028 8.12979C6.53298 8.12979 6.26852 8.171 5.99896 8.2507C5.72821 8.33073 5.49679 8.40804 5.30249 8.4799L5.56865 7.39382C6.22067 7.12834 6.84392 6.90101 7.44009 6.71233C8.03626 6.52315 8.59957 6.42847 9.13239 6.42847C10.0899 6.42847 10.8288 6.65988 11.3476 7.12272C11.8665 7.5859 12.1259 8.18633 12.1259 8.92622C12.1259 9.07931 12.1088 9.34904 12.0722 9.73457C12.0364 10.1209 11.9699 10.475 11.8728 10.797L10.8817 14.3057C10.8005 14.5875 10.7275 14.9097 10.6639 15.2723C10.5984 15.6324 10.5671 15.9076 10.5671 16.0922C10.5671 16.5581 10.6709 16.8762 10.8792 17.0453C11.089 17.2144 11.4503 17.2985 11.9636 17.2985C12.2045 17.2985 12.4787 17.2558 12.7833 17.1718C13.0871 17.0879 13.3087 17.0141 13.4461 16.9496ZM13.6974 2.21883C13.6974 2.83015 13.467 3.35225 13.004 3.78154C12.5422 4.21236 11.9857 4.42795 11.3347 4.42795C10.6817 4.42795 10.1238 4.21236 9.6567 3.78154C9.19046 3.35208 8.95683 2.83015 8.95683 2.21883C8.95683 1.60869 9.19046 1.08574 9.6567 0.651003C10.1229 0.216944 10.6818 0 11.3347 0C11.9855 0 12.5422 0.217455 13.004 0.651003C13.4674 1.08574 13.6974 1.60886 13.6974 2.21883Z" fill="#E5E5E5"/>
</svg>
