<svg width="20" height="23" viewBox="0 0 20 23" fill="none" xmlns="http://www.w3.org/2000/svg">
<path d="M9.99778 0C9.58766 0 9.17753 0.275811 9.1853 0.825191V3.36743L7.69206 1.87256C7.37277 1.54407 6.8442 1.54396 6.52888 1.86931C6.21374 2.19481 6.22193 2.70887 6.54318 3.02141C7.42391 3.90214 8.30458 4.78285 9.18532 5.66362V9.96892L5.45618 7.81706C5.13374 6.61367 4.8122 5.41022 4.48977 4.20683C4.37971 3.7724 3.93903 3.5095 3.49956 3.61968C3.06015 3.73009 2.79553 4.18659 2.92036 4.62737L3.46783 6.66814L1.26525 5.39702C0.880248 5.16765 0.382552 5.29236 0.149689 5.68108C-0.0829705 6.06991 0.0528468 6.57962 0.452776 6.80303L2.65377 8.07414L0.614642 8.62004C0.170513 8.73232 -0.0934193 9.19039 0.0306739 9.62615C0.154978 10.0618 0.603917 10.3114 1.03516 10.1895C2.2379 9.86721 3.44095 9.54535 4.6437 9.22307L8.37284 11.3765L4.6437 13.5284C3.44095 13.2061 2.2379 12.8842 1.03516 12.5619C0.603917 12.44 0.154978 12.6896 0.0306739 13.1253C-0.0934193 13.5611 0.170513 14.0191 0.614642 14.1314L2.65535 14.6773L0.452776 15.9484C0.0528468 16.1718 -0.0829705 16.6815 0.149689 17.0704C0.382552 17.4591 0.880248 17.5838 1.26525 17.3544L3.46783 16.0833L2.92036 18.1241C2.79553 18.5648 3.06015 19.0213 3.49956 19.1318C3.93903 19.2419 4.37971 18.979 4.48977 18.5446C4.8122 17.3412 5.13373 16.1378 5.45618 14.9344L9.18532 12.7825V17.0878C8.30458 17.9686 7.42391 18.8493 6.54318 19.73C6.22195 20.0426 6.21375 20.5566 6.52888 20.8821C6.8442 21.2075 7.37277 21.2074 7.69206 20.8789L9.1853 19.3856V21.9262C9.1788 22.3843 9.55106 22.7569 10.0041 22.7498C10.4572 22.7425 10.8164 22.3744 10.8103 21.9262V19.3888L12.3019 20.8789C12.6212 21.2074 13.1498 21.2075 13.4651 20.8821C13.7802 20.5566 13.772 20.0426 13.4508 19.73C12.5706 18.8498 11.6904 17.9696 10.8102 17.0894V12.7841L14.5378 14.936C14.8601 16.1389 15.1835 17.3417 15.5058 18.5446C15.6158 18.979 16.0565 19.2419 16.496 19.1318C16.9354 19.0213 17.2 18.5648 17.0752 18.1241L16.5293 16.0849L18.7287 17.3544C19.6725 17.9173 20.5005 16.4828 19.5412 15.9468L17.3418 14.6773L19.3793 14.1314C19.8235 14.0191 20.0874 13.5611 19.9633 13.1253C19.839 12.6896 19.3901 12.44 18.9588 12.5619C17.7566 12.8841 16.5541 13.2062 15.3519 13.5284L11.6227 11.3765L15.3519 9.22307C16.5541 9.54522 17.7566 9.86734 18.9588 10.1895C19.3901 10.3114 19.839 10.0618 19.9633 9.62615C20.0874 9.19039 19.8235 8.73232 19.3793 8.62004L17.3418 8.07414L19.5412 6.80461C20.5005 6.26867 19.6725 4.83417 18.7287 5.39702L16.5277 6.66814L17.0752 4.62737C17.2 4.18659 16.9354 3.73009 16.496 3.61968C16.0565 3.5095 15.6158 3.7724 15.5058 4.20683C15.1834 5.41023 14.8602 6.61366 14.5378 7.81706L10.8102 9.96892V5.66204C11.6904 4.7818 12.5706 3.90162 13.4508 3.02141C13.772 2.70887 13.7802 2.19481 13.4651 1.86931C13.1498 1.54389 12.6212 1.54399 12.3019 1.87256L10.8103 3.36425V0.825191C10.8184 0.275811 10.4079 0 9.99778 0Z" fill="#75D5CD"/>
</svg>
