<svg width="19" height="24" viewBox="0 0 19 24" fill="none" xmlns="http://www.w3.org/2000/svg">
<path d="M16.537 4.92593C15.1768 4.92593 14.0741 3.82324 14.0741 2.46297C14.0741 1.10269 15.1768 0 16.537 0C17.8973 0 19 1.10269 19 2.46297C19 3.82324 17.8973 4.92593 16.537 4.92593ZM14.4259 8.44447V8.08933C14.4259 6.92527 15.3727 5.9815 16.537 5.9815C17.7027 5.9815 18.6481 6.92699 18.6481 8.0921V14.0769C18.6481 15.6289 17.3863 16.8889 15.8356 16.8889H13.3729C12.9828 16.8889 12.6666 17.2043 12.6666 17.5908V21.638C12.6666 22.5135 11.9606 23.2223 11.0833 23.2223C10.2076 23.2223 9.5 22.5156 9.5 21.6371V17.2393C9.5 15.2973 11.0769 13.7222 13.0192 13.7222H14.4239C14.4244 13.7222 14.4251 12.9012 14.4259 11.2593H10.9095C10.131 11.2593 9.5 10.6318 9.5 9.85186C9.5 9.07405 10.1312 8.44447 10.9095 8.44447H14.4259ZM3.93074 2.81484H2.11111C1.72245 2.81484 1.40741 2.4998 1.40741 2.11114C1.40741 1.72248 1.72245 1.4074 2.11111 1.4074H5.62964C6.0183 1.4074 6.33334 1.72244 6.33334 2.11109V5.62963C6.33334 6.01829 6.0183 6.33333 5.62964 6.33333C5.24099 6.33333 4.92594 6.01824 4.92594 5.62963V3.80999L1.20131 7.53463C0.926498 7.80944 0.480921 7.80944 0.206109 7.53463C-0.068703 7.25982 -0.068703 6.81424 0.206109 6.53947L3.93074 2.81484Z" fill="#75D5CD"/>
</svg>
