<svg width="29" height="31" viewBox="0 0 29 31" fill="none" xmlns="http://www.w3.org/2000/svg">
<path d="M23.578 21.2203C20.8774 21.2203 18.6882 23.4095 18.6882 26.11C18.6882 28.8108 20.8774 31 23.578 31C26.2786 31 28.4678 28.8108 28.4678 26.11C28.4677 23.4095 26.2785 21.2203 23.578 21.2203ZM26.7547 28.478L25.9898 29.2428C25.9271 29.3058 25.8246 29.3058 25.7618 29.2428L24.2553 27.7362L24.1981 27.7932C24.1352 27.8562 24.033 27.8562 23.9701 27.7932L23.6047 27.4279C23.5419 27.365 23.5419 27.2627 23.6047 27.1998L23.9792 26.8253L23.6459 26.4919L22.8073 27.3307C22.9631 27.7747 22.8639 28.2891 22.5095 28.6435C22.2695 28.8834 21.9507 29.0147 21.6114 29.0133C21.5823 29.0131 21.5548 29.0013 21.5353 28.9814C21.5254 28.9713 21.5172 28.9595 21.5117 28.9462C21.495 28.9057 21.5043 28.8591 21.5353 28.8283L21.8874 28.476L21.6771 27.6904L20.8916 27.4799L20.5392 27.8323C20.5082 27.8632 20.4616 27.8726 20.4214 27.8557C20.381 27.839 20.3545 27.7996 20.3543 27.7561C20.3528 27.4168 20.4843 27.0978 20.7239 26.8581C21.0785 26.5038 21.5928 26.4044 22.037 26.5603L22.8755 25.7216L21.7686 24.6148L20.9846 24.1102L20.6349 23.493L21.0048 23.1233L21.6218 23.473L22.1265 24.257L23.2333 25.3637L23.9839 24.6132C23.8281 24.1691 23.9273 23.6547 24.2818 23.3002C24.5218 23.0604 24.8404 22.9291 25.1798 22.9305C25.2236 22.9308 25.2629 22.9571 25.2795 22.9976C25.2962 23.0382 25.2868 23.0847 25.2559 23.1155L24.9036 23.4678L25.1141 24.2534L25.8997 24.4639L26.2522 24.1116C26.283 24.0806 26.3296 24.0713 26.3698 24.0881C26.4103 24.1048 26.4366 24.144 26.4369 24.1876C26.4385 24.527 26.307 24.8459 26.0674 25.0857C25.7129 25.4401 25.1984 25.5395 24.7543 25.3836L24.0038 26.1342L24.3369 26.4676L24.7114 26.0931C24.7745 26.0301 24.8767 26.0301 24.9397 26.0931L25.3049 26.4583C25.3679 26.5213 25.3679 26.6236 25.3049 26.6865L25.248 26.7435L26.7545 28.25C26.8178 28.3128 26.8178 28.415 26.7547 28.478Z" fill="white"/>
<path d="M21.0131 20.5813L18.0065 19.3825L16.5477 18.1536C16.1625 17.828 15.5936 17.8522 15.2363 18.2073L13.2083 20.2236L11.1746 18.2064C10.817 17.8519 10.2488 17.8289 9.86391 18.1534L8.4053 19.3823L2.17628 21.8663C0.170522 22.6651 0.172136 29.7682 0 30.4202H19.1641C18.0331 29.3301 17.3274 27.8013 17.3274 26.1098C17.3272 23.6233 18.8508 21.4861 21.0131 20.5813Z" fill="white"/>
<path d="M6.0744 11.7523L7.2442 11.7493C7.96679 15.5247 10.531 17.6727 13.2073 17.6727C15.8836 17.6727 17.4385 16.4004 18.4696 14.0558C17.6824 14.6734 16.5381 15.2382 14.9378 15.3549C14.7907 15.5739 14.5408 15.7181 14.2571 15.7181H13.5096C13.057 15.7181 12.6903 15.3513 12.6903 14.8988C12.6903 14.4462 13.057 14.0794 13.5096 14.0794H14.2571C14.5222 14.0794 14.7571 14.2058 14.9068 14.401C17.4799 14.1945 18.6899 12.6339 19.1724 11.7529L20.3402 11.7524C21.0554 11.7524 21.635 11.1725 21.635 10.4577V7.52298C21.635 7.06468 21.3962 6.66281 21.0369 6.43271C20.6043 2.82006 17.2582 0 13.2073 0C9.15641 0 5.8104 2.82006 5.37793 6.43257C5.01854 6.66274 4.77979 7.06454 4.77979 7.52283V10.4575C4.77964 11.1723 5.35922 11.7523 6.0744 11.7523ZM13.2072 1.46741C16.3956 1.46741 19.0472 3.57002 19.5361 6.31311C19.3833 6.37115 19.2447 6.45685 19.1259 6.56471C18.3624 4.15401 16.1564 2.72101 13.2072 2.72101C10.2581 2.72101 8.05088 4.1532 7.28632 6.56266C7.16811 6.45583 7.03024 6.37071 6.87843 6.31311C7.36733 3.57002 10.0189 1.46741 13.2072 1.46741Z" fill="white"/>
</svg>
