<svg width="28" height="28" viewBox="0 0 28 28" fill="none" xmlns="http://www.w3.org/2000/svg">
<path d="M20.6172 13.2344C16.5462 13.2344 13.2344 16.5462 13.2344 20.6172C13.2344 24.6882 16.5462 28 20.6172 28C24.6882 28 28 24.6882 28 20.6172C28 16.5462 24.6882 13.2344 20.6172 13.2344ZM23.8984 21.4375H20.6172C20.1639 21.4375 19.7969 21.0705 19.7969 20.6172V17.3359C19.7969 16.8826 20.1639 16.5156 20.6172 16.5156C21.0705 16.5156 21.4375 16.8826 21.4375 17.3359V19.7969H23.8984C24.3517 19.7969 24.7188 20.1639 24.7188 20.6172C24.7188 21.0705 24.3517 21.4375 23.8984 21.4375Z" fill="white"/>
<path d="M26.3047 2.51562C26.3047 2.05612 25.9439 1.69531 25.4844 1.69531H21.3828V4.15625C21.3828 4.61554 21.022 4.97656 20.5625 4.97656C20.103 4.97656 19.7422 4.61554 19.7422 4.15625V1.69531H16.4609V4.15625C16.4609 4.61554 16.1001 4.97656 15.6406 4.97656C15.1811 4.97656 14.8203 4.61554 14.8203 4.15625V1.69531H11.5391V4.15625C11.5391 4.61554 11.1783 4.97656 10.7188 4.97656C10.2592 4.97656 9.89844 4.61554 9.89844 4.15625V1.69531H6.61719V4.15625C6.61719 4.61554 6.25638 4.97656 5.79688 4.97656C5.33737 4.97656 4.97656 4.61554 4.97656 4.15625V1.69531H0.820312C0.360809 1.69531 0 2.05612 0 2.51562V6.61719H26.3047V2.51562Z" fill="white"/>
<path d="M12.3594 16.4609H12.5563C12.8558 15.879 13.1938 15.3204 13.6074 14.8203H12.3594C11.9061 14.8203 11.5391 14.4533 11.5391 14C11.5391 13.5467 11.9061 13.1797 12.3594 13.1797H14C14.336 13.1797 14.6229 13.3824 14.7498 13.6714C16.3214 12.3438 18.3487 11.5391 20.5625 11.5391H18.9219C18.4686 11.5391 18.1016 11.1721 18.1016 10.7188C18.1016 10.2654 18.4686 9.89844 18.9219 9.89844H20.5625C21.0158 9.89844 21.3828 10.2654 21.3828 10.7188C21.3828 11.1721 21.0158 11.5391 20.5625 11.5391C22.7421 11.5391 24.7435 12.3162 26.3047 13.6074V8.25781H0V23.8438C0 24.2971 0.367004 24.6641 0.820312 24.6641H12.5352C11.9031 23.4319 11.5391 22.0399 11.5391 20.5625C11.5391 19.6595 11.701 18.799 11.949 17.976C11.7083 17.833 11.5391 17.5818 11.5391 17.2812C11.5391 16.8279 11.9061 16.4609 12.3594 16.4609ZM12.3594 9.89844H14C14.4533 9.89844 14.8203 10.2654 14.8203 10.7188C14.8203 11.1721 14.4533 11.5391 14 11.5391H12.3594C11.9061 11.5391 11.5391 11.1721 11.5391 10.7188C11.5391 10.2654 11.9061 9.89844 12.3594 9.89844ZM7.4375 21.3828H5.79688C5.34357 21.3828 4.97656 21.0158 4.97656 20.5625C4.97656 20.1092 5.34357 19.7422 5.79688 19.7422H7.4375C7.89081 19.7422 8.25781 20.1092 8.25781 20.5625C8.25781 21.0158 7.89081 21.3828 7.4375 21.3828ZM7.4375 18.1016H5.79688C5.34357 18.1016 4.97656 17.7346 4.97656 17.2812C4.97656 16.8279 5.34357 16.4609 5.79688 16.4609H7.4375C7.89081 16.4609 8.25781 16.8279 8.25781 17.2812C8.25781 17.7346 7.89081 18.1016 7.4375 18.1016ZM7.4375 14.8203H5.79688C5.34357 14.8203 4.97656 14.4533 4.97656 14C4.97656 13.5467 5.34357 13.1797 5.79688 13.1797H7.4375C7.89081 13.1797 8.25781 13.5467 8.25781 14C8.25781 14.4533 7.89081 14.8203 7.4375 14.8203ZM7.4375 11.5391H5.79688C5.34357 11.5391 4.97656 11.1721 4.97656 10.7188C4.97656 10.2654 5.34357 9.89844 5.79688 9.89844H7.4375C7.89081 9.89844 8.25781 10.2654 8.25781 10.7188C8.25781 11.1721 7.89081 11.5391 7.4375 11.5391Z" fill="white"/>
<path d="M6.61719 0.820312C6.61719 0.360809 6.25638 0 5.79688 0C5.33737 0 4.97656 0.360809 4.97656 0.820312V1.69531H6.61719V0.820312Z" fill="white"/>
<path d="M11.5391 0.820312C11.5391 0.360809 11.1783 0 10.7188 0C10.2592 0 9.89844 0.360809 9.89844 0.820312V1.69531H11.5391V0.820312Z" fill="white"/>
<path d="M16.4609 0.820312C16.4609 0.360809 16.1001 0 15.6406 0C15.1811 0 14.8203 0.360809 14.8203 0.820312V1.69531H16.4609V0.820312Z" fill="white"/>
<path d="M21.3828 0.820312C21.3828 0.360809 21.022 0 20.5625 0C20.103 0 19.7422 0.360809 19.7422 0.820312V1.69531H21.3828V0.820312Z" fill="white"/>
</svg>
