<svg width="30" height="27" viewBox="0 0 30 27" fill="none" xmlns="http://www.w3.org/2000/svg">
<g clip-path="url(#clip0_3_16)">
<path d="M0 0C1.84864 3.14966 3.6594 6.23345 5.51814 9.3986H1.74005C1.98123 9.78601 2.30954 10.0068 2.50779 10.309C3.18335 11.3331 4.09883 11.6637 5.25549 11.4932C5.58507 11.4441 5.92853 11.5126 6.26189 11.479C6.65208 11.439 6.85411 11.603 7.04479 11.9452C9.83669 16.9609 12.6425 21.9675 15.4445 26.9768C15.7753 26.9845 16.1062 26.9935 16.437 27.0013C16.5367 26.8644 16.6466 26.734 16.7363 26.5906C20.2669 20.9783 23.7949 15.366 27.323 9.75244C27.3874 9.64913 27.4985 9.55615 27.3962 9.38698H26.7207C20.5068 9.38698 14.2929 9.38181 8.0777 9.39731C7.62817 9.39731 7.36173 9.27334 7.12434 8.86914C6.08763 7.11158 5.01052 5.37856 3.95867 3.63005C3.67076 3.15224 3.31341 2.71059 3.11642 2.14239C3.39675 2.14239 3.62783 2.14239 3.85891 2.14239C11.7523 2.14239 19.6469 2.14239 27.5402 2.13851C27.7789 2.13851 28.0415 2.23278 28.2473 1.99517C28.8118 1.34432 29.3838 0.701215 30.0013 0.00129137H0V0ZM9.07021 11.4738C14.0441 11.4816 19.0168 11.4816 23.9907 11.4855C24.026 11.4855 24.0601 11.5177 24.1775 11.5746C22.339 14.484 20.5245 17.356 18.7112 20.228C18.1556 21.1075 17.6151 21.9985 17.0431 22.8663C16.4383 23.7845 15.6882 23.769 15.1414 22.8289C13.4986 19.9982 11.8659 17.1623 10.2319 14.3265C9.76597 13.5168 9.31644 12.6955 8.84797 11.8858C8.67876 11.5939 8.70528 11.4738 9.07021 11.4738Z" fill="white"/>
</g>
<defs>
<clipPath id="clip0_3_16">
<rect width="30" height="27" fill="white"/>
</clipPath>
</defs>
</svg>
