<svg width="259" height="35" viewBox="0 0 259 35" fill="none" xmlns="http://www.w3.org/2000/svg">
<g clip-path="url(#clip0_34_568)">
<path d="M155.1 17.26C155.1 11.78 155.1 6.29667 155.1 0.81C155.1 0.36 155.23 0.28 155.65 0.28C159.87 0.28 164.09 0.28 168.31 0.28C171.033 0.249904 173.705 1.01445 176 2.48C177.183 3.2362 178.165 4.26819 178.862 5.48741C179.559 6.70663 179.949 8.07668 180 9.48C180.4 14.7 176.76 18.17 172.87 19.34C172.31 19.51 172.31 19.52 172.62 20L181.22 33.3C181.284 33.4136 181.354 33.5238 181.43 33.63C181.502 33.6998 181.551 33.7891 181.573 33.8869C181.594 33.9847 181.586 34.0867 181.55 34.18C181.47 34.35 181.26 34.25 181.1 34.25H178.58C178.469 34.2745 178.354 34.2635 178.25 34.2186C178.146 34.1738 178.058 34.0973 178 34C175.12 29.48 172.233 24.9633 169.34 20.45C169.237 20.3004 169.184 20.1217 169.19 19.94C169.19 19.3 169.19 18.66 169.19 18.01C169.19 17.7 169.28 17.6 169.6 17.57C171.581 17.3739 173.442 16.5264 174.89 15.16C177.68 12.51 177.89 5.71 172.16 3.59C170.633 3.0561 169.027 2.78558 167.41 2.79C164.57 2.79 161.74 2.79 158.9 2.79C158.45 2.79 158.37 2.91 158.37 3.34C158.37 13.4667 158.37 23.5933 158.37 33.72C158.37 34.19 158.28 34.35 157.79 34.32C157.047 34.275 156.303 34.275 155.56 34.32C155.18 34.32 155.11 34.21 155.11 33.85C155.103 28.3167 155.1 22.7867 155.1 17.26Z" fill="white"/>
<path d="M80 17.28C80 11.76 80 6.27333 80 0.819999C80 0.389999 80.1 0.279999 80.54 0.279999C87.9133 0.279999 95.2867 0.279999 102.66 0.279999C103.12 0.279999 103.26 0.399999 103.22 0.849999C103.19 1.39292 103.19 1.93708 103.22 2.48C103.22 2.69 103.16 2.79 102.94 2.77C102.72 2.75 102.71 2.77 102.59 2.77H83.8C83.35 2.77 83.23 2.88 83.24 3.33C83.24 7.25 83.24 11.17 83.24 15.09C83.24 15.46 83.32 15.54 83.69 15.54C86.08 15.54 88.48 15.54 90.87 15.54C91.21 15.54 91.4 15.54 91.18 15.97C90.9275 16.5223 90.7201 17.0942 90.56 17.68C90.47 17.98 90.31 18.03 90.03 18.03C87.93 18.03 85.84 18.03 83.74 18.03C83.32 18.03 83.24 18.16 83.24 18.55C83.24 22.8167 83.24 27.0833 83.24 31.35C83.24 31.76 83.34 31.86 83.75 31.86C90.1 31.86 96.45 31.86 102.75 31.86C103.21 31.86 103.34 31.99 103.31 32.43C103.265 32.8889 103.265 33.3511 103.31 33.81C103.31 34.28 103.16 34.34 102.75 34.34C100.18 34.34 97.61 34.34 95.04 34.34C90.2 34.34 85.37 34.34 80.54 34.34C80.04 34.34 79.95 34.2 79.96 33.74C79.9867 28.2333 80 22.7467 80 17.28Z" fill="white"/>
<path d="M258.43 34H255.14C254.85 34 254.85 33.77 254.78 33.6C253.593 30.6 252.41 27.6 251.23 24.6C248.563 17.8933 245.913 11.19 243.28 4.49C243.19 4.26 243.11 4.03 243.01 3.73L242.11 6C238.497 15.14 234.89 24.2833 231.29 33.43C231.12 33.85 230.94 34.03 230.46 34.01C229.46 33.96 228.54 34.01 227.52 34.01C227.96 32.93 228.38 31.89 228.81 30.85C232.937 20.71 237.077 10.5867 241.23 0.48C241.249 0.397819 241.284 0.320172 241.333 0.25152C241.382 0.182869 241.444 0.124567 241.515 0.0799632C241.587 0.0353596 241.666 0.00533394 241.75 -0.00838871C241.833 -0.0221114 241.918 -0.0192605 242 9.31323e-08C242.72 9.31323e-08 243.45 9.31323e-08 244.17 9.31323e-08C244.29 -0.0188307 244.413 0.00757352 244.514 0.0740914C244.616 0.140609 244.689 0.2425 244.72 0.36C247.34 6.8 249.973 13.2367 252.62 19.67L258.25 33.38C258.28 33.57 258.34 33.75 258.43 34Z" fill="white"/>
<path d="M16 18.51C16 23.58 16 28.65 16 33.73C16 34.2 15.86 34.3 15.43 34.28C14.67 34.28 13.91 34.28 13.15 34.28C12.81 34.28 12.74 34.17 12.75 33.85C12.75 31.42 12.75 28.98 12.75 26.54C12.75 18.8 12.75 11.06 12.75 3.32C12.75 2.89 12.66 2.75 12.2 2.75L0.479985 2.78C0.0899853 2.78 -0.0200147 2.67 -1.47044e-05 2.29C0.0399725 1.76409 0.0399725 1.23591 -1.47044e-05 0.709999C-1.47044e-05 0.349999 0.109985 0.289999 0.439985 0.289999C3.62999 0.289999 6.80999 0.289999 9.98999 0.289999C16.1 0.289999 22.2 0.299999 28.3 0.279999C28.75 0.279999 28.86 0.399999 28.83 0.819999C28.79 1.31586 28.79 1.81414 28.83 2.31C28.83 2.72 28.7 2.77 28.34 2.77C24.41 2.77 20.49 2.77 16.56 2.77C16.12 2.77 16.03 2.88 16.03 3.31C16.01 8.37 16 13.4367 16 18.51Z" fill="white"/>
</g>
<defs>
<clipPath id="clip0_34_568">
<rect width="258.43" height="34.29" fill="white"/>
</clipPath>
</defs>
</svg>
