<svg width="21" height="21" viewBox="0 0 21 21" fill="none" xmlns="http://www.w3.org/2000/svg">
<path d="M12.8937 18.3512V18.9648C12.8937 19.4531 12.5351 19.8593 12.0684 19.9284L11.9172 20.4858C11.8351 20.7883 11.5628 21 11.2474 21H9.74803C9.4326 21 9.16038 20.7883 9.07828 20.4858L8.93136 19.9284C8.46037 19.8549 8.10173 19.4531 8.10173 18.9605V18.3469C8.10173 18.0185 8.36531 17.7549 8.69371 17.7549H12.3017C12.6301 17.7593 12.8937 18.0228 12.8937 18.3512ZM15.6721 10.0809C15.6721 11.4765 15.119 12.7426 14.2203 13.6716C13.5375 14.3802 13.0968 15.2833 12.9499 16.2469C12.8851 16.6617 12.5264 16.9685 12.103 16.9685H8.89247C8.47334 16.9685 8.11038 16.666 8.04988 16.2512C7.89865 15.2877 7.45359 14.3716 6.77087 13.6673C5.88939 12.7512 5.34062 11.5068 5.32766 10.137C5.29741 7.25926 7.58754 4.93025 10.4653 4.90864C13.3388 4.88704 15.6721 7.21173 15.6721 10.0809ZM11.0832 6.94815C11.0832 6.6284 10.824 6.36481 10.4999 6.36481C8.44309 6.36481 6.76655 8.03704 6.76655 10.0981C6.76655 10.4179 7.02581 10.6815 7.34988 10.6815C7.66964 10.6815 7.93322 10.4222 7.93322 10.0981C7.93322 8.68086 9.08692 7.53148 10.4999 7.53148C10.824 7.53148 11.0832 7.27222 11.0832 6.94815ZM10.4999 3.21049C10.8196 3.21049 11.0832 2.95123 11.0832 2.62716V0.583333C11.0832 0.26358 10.824 0 10.4999 0C10.1758 0 9.91655 0.259259 9.91655 0.583333V2.62716C9.91655 2.95123 10.1801 3.21049 10.4999 3.21049ZM3.63383 10.0765C3.63383 9.75679 3.37457 9.49321 3.0505 9.49321H1.00667C0.68692 9.49321 0.42334 9.75247 0.42334 10.0765C0.42334 10.3963 0.682599 10.6599 1.00667 10.6599H3.0505C3.37457 10.6599 3.63383 10.4006 3.63383 10.0765ZM19.9931 9.49321H17.9493C17.6295 9.49321 17.3659 9.75247 17.3659 10.0765C17.3659 10.3963 17.6252 10.6599 17.9493 10.6599H19.9931C20.3128 10.6599 20.5764 10.4006 20.5764 10.0765C20.5764 9.75679 20.3172 9.49321 19.9931 9.49321ZM4.8221 14.9333L3.37457 16.3809C3.14556 16.6099 3.14556 16.9772 3.37457 17.2062C3.48692 17.3185 3.63815 17.3747 3.78507 17.3747C3.93198 17.3747 4.08322 17.3185 4.19556 17.2062L5.64309 15.7586C5.8721 15.5296 5.8721 15.1623 5.64309 14.9333C5.4184 14.7043 5.0468 14.7043 4.8221 14.9333ZM15.7672 5.39259C15.9141 5.39259 16.0653 5.33642 16.1777 5.22407L17.6252 3.77654C17.8542 3.54753 17.8542 3.18025 17.6252 2.95123C17.3962 2.72222 17.0289 2.72222 16.7999 2.95123L15.3523 4.39877C15.1233 4.62778 15.1233 4.99506 15.3523 5.22407C15.469 5.33642 15.6159 5.39259 15.7672 5.39259ZM4.8221 5.21975C4.93445 5.3321 5.08568 5.38827 5.2326 5.38827C5.37951 5.38827 5.53075 5.3321 5.64309 5.21975C5.8721 4.99074 5.8721 4.62346 5.64309 4.39444L4.19556 2.94691C3.96655 2.7179 3.59927 2.7179 3.37025 2.94691C3.14124 3.17593 3.14124 3.54321 3.37025 3.77222L4.8221 5.21975ZM16.1777 14.9333C15.9486 14.7043 15.5814 14.7043 15.3523 14.9333C15.1233 15.1623 15.1233 15.5296 15.3523 15.7586L16.7999 17.2062C16.9122 17.3185 17.0635 17.3747 17.2104 17.3747C17.3573 17.3747 17.5085 17.3185 17.6209 17.2062C17.8499 16.9772 17.8499 16.6099 17.6209 16.3809L16.1777 14.9333Z" fill="white"/>
</svg>
