<svg width="120" height="106" viewBox="0 0 120 106" fill="none" xmlns="http://www.w3.org/2000/svg">
<g clip-path="url(#clip0_34_565)">
<path d="M0 0L22 36.62H6.81L6.75 36.75C7.61 37.64 8.47 38.53 9.34 39.41C10.89 41.01 12.45 42.6 13.99 44.21C14.1197 44.3614 14.2833 44.4801 14.4675 44.5566C14.6516 44.633 14.8512 44.665 15.05 44.65H26.31C26.4937 44.6267 26.68 44.6627 26.8419 44.7526C27.0038 44.8425 27.1327 44.9817 27.21 45.15C29.97 50.0033 32.74 54.8467 35.52 59.68C39 65.74 42.47 71.8067 45.93 77.88C49.39 83.9533 52.8633 90.0133 56.35 96.06C57.96 98.88 59.58 101.7 61.17 104.53C61.2354 104.69 61.3529 104.824 61.5035 104.909C61.654 104.994 61.829 105.026 62 105C63 105 63.93 105 64.89 105C65.017 105.012 65.1447 104.987 65.2581 104.928C65.3715 104.87 65.4658 104.78 65.53 104.67C66.12 103.73 66.72 102.79 67.32 101.86L75.23 89.55C77.09 86.65 78.9567 83.7533 80.83 80.86L88.18 69.41C90.2733 66.15 92.37 62.8933 94.47 59.64C97.09 55.56 99.7133 51.4767 102.34 47.39C104.547 43.9233 106.767 40.46 109 37C109.06 36.9 109.2 36.81 109.07 36.65H30.48C30.3502 36.64 30.2198 36.64 30.09 36.65C29.9448 36.6769 29.7948 36.6527 29.6654 36.5816C29.536 36.5105 29.4352 36.3969 29.38 36.26C28.08 34.14 26.77 32.04 25.46 29.94C21.1533 23.0133 16.8467 16.09 12.54 9.17C12.3577 8.95463 12.2246 8.70209 12.15 8.43H111.15C111.266 8.4465 111.384 8.431 111.491 8.38516C111.599 8.33933 111.692 8.26491 111.76 8.17L113.76 5.98C115.15 4.44 116.56 2.91 117.93 1.36C118.351 0.960752 118.711 0.502655 119 0L0 0ZM34.43 44.65H96C96.08 44.86 95.94 44.97 95.87 45.09C94.87 46.78 93.77 48.46 92.72 50.09C91.54 51.97 90.27 53.79 89.12 55.68C88.2 57.22 87.17 58.68 86.19 60.18C85.38 61.44 84.59 62.7 83.78 63.95L80.24 69.43C79.02 71.33 77.7967 73.23 76.57 75.13L72.85 80.87C71.65 82.73 70.43 84.59 69.26 86.47C68.6 87.47 67.9 88.53 67.26 89.56C66.8324 90.2283 66.2309 90.7676 65.52 91.12C64.8894 91.4402 64.1761 91.56 63.4755 91.4635C62.7749 91.367 62.1205 91.0587 61.6 90.58C60.898 90.01 60.334 89.2887 59.95 88.47C59.79 88.15 59.59 87.84 59.41 87.53C58.57 86.1 57.75 84.65 56.88 83.24C55.81 81.5 54.79 79.72 53.74 77.97C52.8867 76.6567 52.0567 75.2967 51.25 73.89C50.69 72.89 50.14 71.97 49.55 71.04C48.96 70.11 48.47 69.16 47.92 68.22C46.5867 65.9467 45.2533 63.6767 43.92 61.41C43 59.86 42.06 58.31 41.14 56.75C40.36 55.43 39.6 54.1 38.82 52.75C38.04 51.4 37.29 50.22 36.52 49C35.7329 47.6591 35.0315 46.2696 34.42 44.84C34.4154 44.7765 34.4187 44.7127 34.43 44.65Z" fill="white"/>
</g>
<defs>
<clipPath id="clip0_34_565">
<rect width="119.01" height="105.02" fill="white"/>
</clipPath>
</defs>
</svg>
