<svg width="20" height="20" viewBox="0 0 20 20" fill="none" xmlns="http://www.w3.org/2000/svg">
<path d="M3.10382 10.9091H13.6362C14.1383 10.9091 14.5453 10.502 14.5453 9.99998C14.5453 9.49792 14.1383 9.09089 13.6362 9.09089H3.10382L4.27921 7.91556C4.63424 7.56059 4.63424 6.98495 4.27921 6.62992C3.9243 6.27489 3.34867 6.27489 2.99358 6.62992L0.266485 9.35701C0.245394 9.37804 0.225515 9.40004 0.206606 9.42307C0.202 9.42871 0.198061 9.43477 0.193576 9.44053C0.179697 9.45816 0.166061 9.47586 0.153576 9.49453C0.149939 9.49998 0.14697 9.50574 0.143394 9.51125C0.130909 9.53077 0.118667 9.55047 0.107636 9.57101C0.105515 9.57507 0.103758 9.57938 0.101636 9.58344C0.0901818 9.60568 0.0791515 9.62822 0.0695152 9.6515C0.068303 9.65435 0.0674545 9.65738 0.066303 9.66028C0.0564242 9.68477 0.0472727 9.70956 0.0395152 9.73507C0.0384848 9.73828 0.0379394 9.74162 0.0370303 9.74489C0.029697 9.76992 0.0229697 9.79519 0.0178182 9.82107C0.016303 9.82877 0.0156364 9.83671 0.0142424 9.84447C0.0104848 9.86592 0.00672727 9.88738 0.00460606 9.90925C0.00151515 9.93925 0 9.96956 0 9.99998C0 10.0304 0.00151515 10.0607 0.00460606 10.0908C0.00672727 10.113 0.0106061 10.1346 0.014303 10.1562C0.0156364 10.1637 0.016303 10.1714 0.0178182 10.1789C0.0230303 10.205 0.029697 10.2305 0.0370909 10.2558C0.038 10.2588 0.0385455 10.2619 0.0394545 10.2649C0.0472727 10.2905 0.0564242 10.3156 0.0664242 10.3403C0.0675151 10.343 0.068303 10.3458 0.0694546 10.3485C0.0791515 10.3719 0.0902424 10.3946 0.101818 10.417C0.103818 10.4209 0.105515 10.425 0.107576 10.429C0.118727 10.4496 0.13103 10.4695 0.143697 10.4892C0.147091 10.4945 0.15 10.5002 0.153515 10.5054C0.166061 10.5241 0.179818 10.5419 0.193636 10.5596C0.198061 10.5653 0.202 10.5713 0.206545 10.5769C0.225515 10.5999 0.245394 10.6219 0.266424 10.643L2.99352 13.37C3.17103 13.5476 3.4037 13.6363 3.63636 13.6363C3.86903 13.6363 4.1017 13.5476 4.27915 13.37C4.63418 13.015 4.63418 12.4394 4.27915 12.0844L3.10382 10.9091Z" fill="#E5E5E5"/>
<path d="M12.5636 2.56357C10.0821 2.56357 7.77341 3.7946 6.38765 5.85648C6.10765 6.27314 6.21844 6.83799 6.6351 7.11805C7.05183 7.39805 7.61662 7.28739 7.89674 6.8706C8.94407 5.31211 10.6887 4.38169 12.5636 4.38169C15.6615 4.38175 18.1818 6.90205 18.1818 9.99999C18.1818 13.0979 15.6615 15.6182 12.5636 15.6182C10.6942 15.6182 8.95244 14.692 7.90432 13.1406C7.62316 12.7245 7.05819 12.6152 6.64207 12.8962C6.22607 13.1773 6.11662 13.7424 6.39771 14.1584C7.78444 16.211 10.0894 17.4364 12.5636 17.4364C16.664 17.4364 20 14.1005 20 9.99999C20 5.89951 16.664 2.56357 12.5636 2.56357Z" fill="#E5E5E5"/>
</svg>
