<svg width="21" height="21" viewBox="0 0 21 21" fill="none" xmlns="http://www.w3.org/2000/svg">
<path d="M9.57356 12.5827C8.43092 11.6624 7.59092 10.4333 7.15239 9.0621L1.60591 14.6148C0.969735 15.2509 0.617676 16.0971 0.617676 16.9989C0.617676 17.9006 0.969735 18.753 1.60591 19.3953C2.24209 20.0315 3.09444 20.3836 3.99003 20.3836H4.00238C4.90415 20.3774 5.75033 20.0253 6.3865 19.3892L11.9392 13.8427C11.0806 13.5771 10.2777 13.1448 9.57356 12.5827ZM3.70591 18.5306C3.0265 18.5306 2.47062 17.9748 2.47062 17.2953C2.47062 16.6098 3.0265 16.06 3.70591 16.06C4.3915 16.06 4.94121 16.6098 4.94121 17.2953C4.94121 17.9748 4.3915 18.5306 3.70591 18.5306Z" fill="#E3E4E4"/>
<path d="M16.8853 8.48152L19.3145 6.05232C19.6931 5.6737 20.3447 5.92323 20.3731 6.45749C20.4757 8.34255 19.7184 10.2647 18.102 11.5877C15.8779 13.4079 12.5877 13.4233 10.35 11.6204C7.43219 9.26964 7.26727 4.99552 9.83792 2.42487C11.1288 1.13461 12.8483 0.534256 14.5382 0.625668C15.0737 0.654697 15.3251 1.3057 14.9459 1.68493L12.516 4.11476C12.2091 4.42173 12.0862 4.86643 12.1912 5.28705L12.7137 7.38149C12.8242 7.82435 13.1695 8.17023 13.6124 8.28079L15.7111 8.80641C16.1324 8.91202 16.5783 8.78911 16.8853 8.48152Z" fill="#E3E4E4"/>
</svg>
