<svg width="21" height="21" viewBox="0 0 21 21" fill="none" xmlns="http://www.w3.org/2000/svg">
<path d="M13.8687 2.94306L14.0498 3.42694L14.231 2.94306C14.3066 2.74099 14.4247 2.5575 14.5773 2.40497C14.7299 2.25244 14.9135 2.13442 15.1156 2.05888L15.5968 1.87775L15.1156 1.69663C14.9136 1.62088 14.7303 1.50273 14.5778 1.35013C14.4254 1.19754 14.3074 1.01404 14.2318 0.812L14.0507 0.328125L13.8687 0.812C13.7932 1.01404 13.6752 1.19754 13.5228 1.35013C13.3703 1.50273 13.1869 1.62088 12.985 1.69663L12.5011 1.87775L12.985 2.05888C13.1869 2.13452 13.3703 2.25259 13.5228 2.40511C13.6752 2.55764 13.7932 2.74108 13.8687 2.94306Z" fill="#E5E5E5"/>
<path d="M17.2275 4.72237L17.3644 5.089L17.5001 4.72237C17.5573 4.56909 17.6469 4.4299 17.7626 4.31419C17.8783 4.19848 18.0175 4.10897 18.1707 4.05169L18.5374 3.91431L18.1707 3.77694C18.0175 3.71966 17.8783 3.63014 17.7626 3.51443C17.6469 3.39873 17.5573 3.25953 17.5001 3.10625L17.3627 2.73962L17.2257 3.10625C17.1683 3.25946 17.0788 3.39859 16.9631 3.51428C16.8474 3.62997 16.7083 3.71953 16.5551 3.77694L16.188 3.91431L16.5551 4.05169C16.7086 4.10888 16.8481 4.19835 16.9641 4.31405C17.0801 4.42975 17.1699 4.56899 17.2275 4.72237Z" fill="#E5E5E5"/>
<path d="M19.2771 2.68538L19.4141 3.05244L19.5514 2.68538C19.6088 2.53217 19.6984 2.39304 19.8141 2.27735C19.9298 2.16166 20.0689 2.07209 20.2221 2.01469L20.5888 1.87775L20.2221 1.74038C20.0688 1.6831 19.9297 1.59358 19.8139 1.47787C19.6982 1.36217 19.6087 1.22297 19.5514 1.06969L19.4141 0.703064L19.2771 1.06969C19.2197 1.2229 19.1302 1.36203 19.0145 1.47772C18.8988 1.59341 18.7597 1.68297 18.6064 1.74038L18.2394 1.87775L18.6064 2.01469C18.7596 2.07224 18.8986 2.16186 19.0143 2.27753C19.13 2.3932 19.2196 2.53225 19.2771 2.68538Z" fill="#E5E5E5"/>
<path d="M17.4479 19.3169V20.2283C17.4479 20.2867 17.4594 20.3446 17.4819 20.3985C17.5043 20.4525 17.5372 20.5015 17.5786 20.5427C17.62 20.5839 17.6692 20.6166 17.7232 20.6387C17.7773 20.6609 17.8352 20.6722 17.8937 20.6719H19.5999C19.7176 20.6719 19.8304 20.6251 19.9136 20.5419C19.9968 20.4588 20.0436 20.3459 20.0436 20.2283V18.4717C19.7619 18.7547 19.4245 18.9759 19.0527 19.1215C18.6809 19.267 18.283 19.3336 17.8841 19.3169H17.4479Z" fill="#E5E5E5"/>
<path d="M0.932739 18.4459V20.2283C0.932739 20.3459 0.979478 20.4587 1.06267 20.5419C1.14587 20.6251 1.25871 20.6719 1.37636 20.6719H3.08261C3.20027 20.6719 3.31311 20.6251 3.3963 20.5419C3.4795 20.4587 3.52624 20.3459 3.52624 20.2283V19.3169H3.11718C2.71218 19.3344 2.30809 19.2658 1.93155 19.1157C1.55501 18.9655 1.21459 18.7372 0.932739 18.4459Z" fill="#E5E5E5"/>
<path d="M0.945435 16.6687C0.945435 17.9261 1.82043 18.6589 3.11718 18.6589H17.8832C19.1782 18.6589 20.055 17.9261 20.055 16.6687V16.3056H0.945435V16.6687Z" fill="#E5E5E5"/>
<path d="M20.2563 8.57501L19.1625 8.38513C19.0752 8.36988 18.9852 8.38456 18.9072 8.4268C18.8293 8.46905 18.7678 8.53637 18.7329 8.61788L18.3925 9.38744L18.2543 9.17657L17.2953 6.9125C17.1406 6.54522 16.895 6.22334 16.5815 5.97719C16.2681 5.73104 15.8972 5.56872 15.5037 5.5055C13.8478 5.25409 12.1749 5.13195 10.5 5.14019C8.82528 5.13237 7.15248 5.25494 5.49677 5.50682C5.10291 5.56972 4.73155 5.7319 4.41772 5.97807C4.10389 6.22423 3.85793 6.54627 3.70302 6.91382L2.74621 9.17438L2.61015 9.38219L2.26758 8.61569C2.23264 8.53419 2.17121 8.46686 2.09324 8.42462C2.01527 8.38237 1.92532 8.36769 1.83796 8.38294L0.743771 8.57501C0.642692 8.59134 0.550746 8.64317 0.484435 8.72119C0.418124 8.79921 0.381792 8.8983 0.381959 9.00069V9.21551C0.381979 9.31409 0.415701 9.40971 0.477531 9.4865C0.53936 9.56329 0.625583 9.61664 0.721896 9.63769L2.2199 9.98026L1.5024 11.074C1.13928 11.6278 0.945858 12.2756 0.945896 12.9378V15.6503H20.055V12.9378C20.0549 12.2755 19.8613 11.6277 19.4981 11.074L18.778 9.97501L20.2786 9.63682C20.3749 9.61576 20.4611 9.56242 20.523 9.48563C20.5848 9.40884 20.6185 9.31322 20.6185 9.21463V8.99982C20.6185 8.89751 20.582 8.79857 20.5156 8.72073C20.4492 8.64289 20.3573 8.59122 20.2563 8.57501ZM4.30896 7.17019C4.4195 6.90475 4.5962 6.67204 4.82221 6.49428C5.04822 6.31652 5.316 6.19963 5.60002 6.15475C7.22161 5.90863 8.85987 5.78884 10.5 5.79644C12.1402 5.78884 13.7784 5.90863 15.4 6.15475C15.6838 6.19977 15.9514 6.31667 16.1772 6.49434C16.4031 6.67201 16.5797 6.90453 16.6902 7.16975L17.4274 8.90838H3.57177L4.30896 7.17019ZM2.91727 13.5139C2.78866 13.4952 2.66864 13.4383 2.57277 13.3505C2.4769 13.2627 2.4096 13.1482 2.37958 13.0218C2.34003 12.8743 2.32452 12.7214 2.33365 12.5689C2.36908 12.1752 2.4929 11.9814 2.74315 11.9814C2.74315 11.9814 4.45902 12.0881 4.6909 12.1594C4.92277 12.2308 5.81265 13.9226 5.81265 13.9226L2.91727 13.5139ZM13.909 14.1702L10.479 14.3662L7.09102 14.175L6.22696 12.3423C6.22696 12.3423 9.27065 12.6074 10.4996 12.6074C11.7285 12.6074 14.7731 12.3423 14.7731 12.3423L13.909 14.1702ZM18.62 13.0235C18.59 13.15 18.5227 13.2645 18.4268 13.3522C18.331 13.44 18.2109 13.4969 18.0823 13.5157L15.187 13.9243C15.187 13.9243 16.0773 12.2325 16.3091 12.1612C16.541 12.0899 18.2565 11.9831 18.2565 11.9831C18.5071 11.9831 18.6305 12.1787 18.666 12.5707C18.6751 12.7231 18.6596 12.876 18.62 13.0235Z" fill="#E5E5E5"/>
</svg>
